<svg width="32" height="32" viewBox="0 0 32 32" fill="none" xmlns="http://www.w3.org/2000/svg">
<path fill-rule="evenodd" clip-rule="evenodd" d="M18.5 13.25C18.5 14.4926 17.4926 15.5 16.25 15.5H13V11H16.25C17.4926 11 18.5 12.0074 18.5 13.25ZM12 15.5V11V10H13H16.25C18.0449 10 19.5 11.4551 19.5 13.25C19.5 14.3098 18.9927 15.2512 18.2077 15.8444C19.2706 16.3788 20 17.4792 20 18.75C20 20.5449 18.5449 22 16.75 22H13H12V21V16.5V15.5ZM13 16.5V21H16.75C17.9926 21 19 19.9926 19 18.75C19 17.5074 17.9926 16.5 16.75 16.5H16.25H13Z" fill="black"/>
</svg>
