<svg width="32" height="32" viewBox="0 0 32 32" fill="none" xmlns="http://www.w3.org/2000/svg">
<path fill-rule="evenodd" clip-rule="evenodd" d="M21.9548 14.9551C21.9548 18.2439 19.2886 20.9101 15.9997 20.9101C12.7108 20.9101 10.0447 18.2439 10.0447 14.9551C10.0447 11.6662 12.7108 9 15.9997 9C19.2886 9 21.9548 11.6662 21.9548 14.9551ZM22.9548 14.9551C22.9548 18.7962 19.8409 21.9101 15.9997 21.9101C12.1586 21.9101 9.04468 18.7962 9.04468 14.9551C9.04468 11.1139 12.1586 8 15.9997 8C19.8409 8 22.9548 11.1139 22.9548 14.9551ZM15.9997 22.8483C13.4174 22.8483 11.1247 21.6083 9.68456 19.6912L8.88965 20.2874C10.511 22.4458 13.0923 23.8419 15.9997 23.8419C18.907 23.8419 21.4883 22.4458 23.1097 20.2874L22.3148 19.6912C20.8747 21.6083 18.582 22.8483 15.9997 22.8483Z" fill="black" fill-opacity="0.8"/>
</svg>
