<svg width="32" height="32" viewBox="0 0 32 32" fill="none" xmlns="http://www.w3.org/2000/svg">
<path fill-rule="evenodd" clip-rule="evenodd" d="M10.0605 15.6471L16.353 9.35276L15.6458 8.64575L9.35325 14.9401C8.76758 15.5259 8.76768 16.4756 9.35348 17.0613L14.9393 22.6463C15.5251 23.232 16.4748 23.232 17.0606 22.6462L23.3525 16.3543L22.6454 15.6472L16.3535 21.9391C16.1582 22.1344 15.8416 22.1344 15.6464 21.9392L10.0605 16.3541C9.86527 16.1589 9.86523 15.8423 10.0605 15.6471ZM21.501 9.99982H18.001V10.9998H20.2939L16.1475 15.1463L16.8546 15.8534L21.001 11.7069V13.9998H22.001V10.4998V9.99982H21.501Z" fill="black" fill-opacity="0.8"/>
</svg>
