<svg width="32" height="32" viewBox="0 0 32 32" fill="none" xmlns="http://www.w3.org/2000/svg">
	<path
		d="M20 22H24V21.1193H21.4659L22.4688 20.0597C23.5994 18.9745 23.9119 18.446 23.9119 17.7898C23.9119 16.8154 23.1193 16.1023 21.9489 16.1023C20.7955 16.1023 20 16.8949 20 18H21.0028C21.0028 17.4062 21.3551 16.9574 21.9347 16.9574C22.4886 16.9574 22.9006 17.2955 22.9006 17.8438C22.9006 18.3296 22.6051 18.6762 22.0313 19.2585L20 21.2387V22Z"
		fill="black"
	/>
	<path
		fill-rule="evenodd"
		clip-rule="evenodd"
		d="M8.5 11H9.5V16H15.5V11H16.5V22H15.5V17H9.5V22H8.5V11Z"
		fill="black"
	/>
</svg>
