<svg width="32" height="32" viewBox="0 0 32 32" fill="none" xmlns="http://www.w3.org/2000/svg">
<path fill-rule="evenodd" clip-rule="evenodd" d="M23 16C23 19.866 19.866 23 16 23C12.134 23 9 19.866 9 16C9 12.134 12.134 9 16 9C19.866 9 23 12.134 23 16ZM24 16C24 20.4183 20.4183 24 16 24C11.5817 24 8 20.4183 8 16C8 11.5817 11.5817 8 16 8C20.4183 8 24 11.5817 24 16ZM16 20.4998C14.5476 20.4998 13.2559 19.8117 12.4331 18.7437L11.6404 19.3534C12.646 20.6588 14.2249 21.4998 16 21.4998C17.7751 21.4998 19.354 20.6588 20.3596 19.3534L19.5669 18.7437C18.7441 19.8117 17.4524 20.4998 16 20.4998Z" fill="black" fill-opacity="0.8"/>
</svg>
