<svg width="32" height="32" viewBox="0 0 32 32" fill="none" xmlns="http://www.w3.org/2000/svg">
<path fill-rule="evenodd" clip-rule="evenodd" d="M12 11.9999H9.5C8.11929 11.9999 7 13.1192 7 14.4999C7 15.8806 8.11929 16.9999 9.5 16.9999H12L12 11.9999ZM13 11.9962L13 16.9999H13.6738C15.3383 16.9999 16.9874 17.3196 18.5314 17.9416L20 18.5332V9.776L19.3548 10.1613C17.4287 11.3115 15.2393 11.9427 13 11.9962ZM9.5 10.9999H12.6897C14.8561 10.9999 16.9821 10.4134 18.8421 9.30271L20.2437 8.46577C20.5769 8.26675 21 8.50688 21 8.89506V19.2736C21 19.6279 20.6418 19.8698 20.3132 19.7374L18.1577 18.8691C16.7325 18.295 15.2103 17.9999 13.6738 17.9999H13.3286L14.5613 21.6979C14.7771 22.3454 14.2951 23.0141 13.6126 23.0141H12.4415C11.5807 23.0141 10.8164 22.4633 10.5442 21.6466L9.33333 18.0141L9.32719 17.9957C7.47447 17.9056 6 16.3749 6 14.4999C6 12.5669 7.567 10.9999 9.5 10.9999ZM10.3874 18.0141L11.4928 21.3304C11.6289 21.7387 12.0111 22.0141 12.4415 22.0141H13.6126L12.2792 18.0141H10.3874Z" fill="black" fill-opacity="0.8"/>
<path fill-rule="evenodd" clip-rule="evenodd" d="M24.5 14C24.5 13.1716 23.8284 12.5 23 12.5V11.5C24.3807 11.5 25.5 12.6193 25.5 14C25.5 15.3807 24.3807 16.5 23 16.5V15.5C23.8284 15.5 24.5 14.8284 24.5 14Z" fill="black" fill-opacity="0.8"/>
</svg>
