<svg width="32" height="32" viewBox="0 0 32 32" fill="none" xmlns="http://www.w3.org/2000/svg">
<path fill-rule="evenodd" clip-rule="evenodd" d="M14 10H22V11H14V10ZM14 20H22V21H14V20ZM22 15H14V16H22V15Z" fill="black"/>
<path d="M10.1628 9.63647H9.41069L8.32617 10.3332V11.0576L9.34677 10.4057H9.37234V14.0001H10.1628V9.63647Z" fill="black"/>
<path d="M8.38787 21H11.3794V20.3394H9.47878V20.3096L10.2309 19.5447C11.0789 18.7308 11.3133 18.3345 11.3133 17.8423C11.3133 17.1115 10.7188 16.5767 9.841 16.5767C8.97594 16.5767 8.3623 17.1136 8.3623 17.9424H9.11444C9.11444 17.4971 9.39569 17.218 9.83034 17.218C10.2458 17.218 10.5548 17.4715 10.5548 17.8828C10.5548 18.2471 10.3332 18.5071 9.90279 18.9438L8.38787 20.4289V21Z" fill="black"/>
</svg>
