<svg width="32" height="32" viewBox="0 0 32 32" fill="none" xmlns="http://www.w3.org/2000/svg">
<path fill-rule="evenodd" clip-rule="evenodd" d="M20.7728 9.14861C21.1633 8.75808 21.7965 8.75808 22.187 9.14861L23.6012 10.5628C23.9918 10.9533 23.9918 11.5865 23.6012 11.977L22.187 13.3913L19.3586 10.5629L18.6515 11.27L21.4799 14.0984L13.2087 22.3695L9.67319 23.0766L10.3803 19.5411L20.7728 9.14861ZM9.46073 24.1389L13.7017 23.2907L24.3083 12.6841C25.0894 11.9031 25.0894 10.6368 24.3083 9.85571L22.8941 8.4415C22.1131 7.66045 20.8467 7.66045 20.0657 8.4415L9.4591 19.0481L8.6109 23.2891L8.39844 24.3514L9.46073 24.1389Z" fill="black" fill-opacity="0.8"/>
</svg>
