<svg width="32" height="32" viewBox="0 0 32 32" fill="none" xmlns="http://www.w3.org/2000/svg">
<path fill-rule="evenodd" clip-rule="evenodd" d="M21.5 13L21.5 9.00001L22.5 9.00001L22.5 14V14.5H22H17V13.5L20.4276 13.5C20.0232 12.5037 19.3243 11.6491 18.4186 11.0545C17.3639 10.362 16.0973 10.0671 14.8452 10.2225C13.5931 10.3779 12.437 10.9733 11.5835 11.9025C10.73 12.8317 10.2347 14.0341 10.186 15.2949C10.1373 16.5556 10.5385 17.7926 11.3178 18.7848C12.0971 19.7771 13.2039 20.4599 14.4403 20.7113C15.6767 20.9628 16.9622 20.7664 18.0671 20.1573C19.1715 19.5486 20.0235 18.5673 20.4713 17.3886L20.4721 17.3866L20.6423 17.4511L21.4071 17.7413L21.5772 17.8059L21.5764 17.8082C21.4571 18.1221 21.3144 18.4246 21.1502 18.7134C20.5606 19.7501 19.6934 20.6106 18.6377 21.1925C17.2872 21.937 15.7159 22.177 14.2047 21.8696C12.6935 21.5623 11.3408 20.7277 10.3882 19.515C9.43568 18.3022 8.94535 16.7902 9.00484 15.2493C9.06434 13.7083 9.66978 12.2386 10.713 11.1029C11.7562 9.96718 13.1693 9.23936 14.6997 9.04947C16.2301 8.85959 17.7781 9.22002 19.0673 10.0664C20.075 10.7279 20.8732 11.6528 21.3811 12.7318C21.4227 12.8202 21.4623 12.9096 21.5 13Z" fill="black"/>
</svg>
