<svg width="32" height="32" viewBox="0 0 32 32" fill="none" xmlns="http://www.w3.org/2000/svg">
<path fill-rule="evenodd" clip-rule="evenodd" d="M13.9038 11.2971C14.5559 10.7694 15.4276 10.5 16.3486 10.5C17.2557 10.5 18.1045 10.7283 18.7557 11.2425C19.4171 11.7647 19.825 12.5433 19.9049 13.5368L18.9081 13.617C18.8478 12.8677 18.5546 12.3579 18.136 12.0273C17.7071 11.6887 17.0972 11.5 16.3486 11.5C15.6141 11.5 14.9765 11.7155 14.533 12.0744C14.0989 12.4258 13.8299 12.9289 13.8299 13.5769C13.8299 14.1922 14.1148 14.5901 14.469 14.8693C14.529 14.9166 14.5906 14.96 14.6526 15H13.2422C12.9967 14.6266 12.8299 14.1578 12.8299 13.5769C12.8299 12.6178 13.2425 11.8325 13.9038 11.2971ZM18.8235 18H19.893C19.9616 18.2406 20 18.507 20 18.8014C20 19.7725 19.6269 20.5937 18.9353 21.1625C18.2549 21.722 17.3131 22 16.228 22C15.1275 22 14.2415 21.6893 13.5999 21.1211C12.9597 20.5542 12.6107 19.7735 12.5039 18.9219L13.4961 18.7974C13.5789 19.4577 13.8389 19.9971 14.2628 20.3724C14.6852 20.7465 15.3184 21 16.228 21C17.1527 21 17.847 20.7628 18.3001 20.3901C18.7421 20.0266 19 19.4985 19 18.8014C19 18.4771 18.9337 18.2154 18.8235 18ZM10 17H22V16H10V17Z" fill="black"/>
</svg>
