<svg width="32" height="32" viewBox="0 0 32 32" fill="none" xmlns="http://www.w3.org/2000/svg">
<path fill-rule="evenodd" clip-rule="evenodd" d="M23.2898 22.0001L15.9996 9.03979L8.70946 22.0001L23.2898 22.0001ZM16.8712 8.54953C16.4889 7.86988 15.5103 7.86988 15.128 8.54953L7.83789 21.5098C7.46292 22.1764 7.94464 23.0001 8.70946 23.0001H23.2898C24.0546 23.0001 24.5363 22.1764 24.1613 21.5098L16.8712 8.54953ZM15.9995 12.9734C16.4137 12.9734 16.7495 13.3092 16.7495 13.7234V16.2528C16.7495 16.667 16.4137 17.0028 15.9995 17.0028C15.5853 17.0028 15.2495 16.667 15.2495 16.2528V13.7234C15.2495 13.3092 15.5853 12.9734 15.9995 12.9734ZM16.9995 19.5002C16.9995 18.948 16.5518 18.5002 15.9995 18.5002C15.4472 18.5002 14.9995 18.948 14.9995 19.5002V19.5688C14.9995 20.1211 15.4472 20.5688 15.9995 20.5688C16.5518 20.5688 16.9995 20.1211 16.9995 19.5688V19.5002Z" fill="black" fill-opacity="0.8"/>
</svg>
